<svg width="256" height="256" viewBox="0 0 256 256" fill="none" xmlns="http://www.w3.org/2000/svg">
<path d="M244.5 100L188.5 36C187.938 35.3621 187.245 34.8532 186.469 34.508C185.692 34.1628 184.85 33.9895 184 34H72.0001C71.1502 33.9895 70.3081 34.1628 69.5314 34.508C68.7548 34.8532 68.0618 35.3621 67.5001 36L11.5001 100C10.5227 101.128 9.99302 102.576 10.0115 104.069C10.0299 105.562 10.5951 106.996 11.6001 108.1L123.6 228.1C124.162 228.706 124.842 229.189 125.6 229.52C126.357 229.85 127.174 230.021 128 230.021C128.826 230.021 129.643 229.85 130.401 229.52C131.158 229.189 131.838 228.706 132.4 228.1L244.4 108.1C245.405 106.996 245.97 105.562 245.989 104.069C246.007 102.576 245.478 101.128 244.5 100V100ZM74.7001 46H115.8L75.9001 98H29.2001L74.7001 46ZM128 49.9L164.9 98H91.1001L128 49.9ZM29.8001 110H74.9001L110.1 196L29.8001 110ZM128 208.2L87.8001 110H168.2L128 208.2ZM145.9 196L181.1 110H226.2L145.9 196ZM180.1 98L140.2 46H181.3L226.8 98H180.1Z" fill="#FFD100"/>
</svg>
