<svg width="754" height="522" viewBox="0 0 754 522" fill="none" xmlns="http://www.w3.org/2000/svg">
<g filter="url(#filter0_d_4_3)">
<path d="M57.1471 98.9691L69.5284 133.874H109.595L77.1804 155.447L89.5617 190.352L57.1471 168.78L24.7324 190.352L37.1137 155.447L4.69909 133.874H44.7658L57.1471 98.9691Z" fill="#B28937"/>
</g>
<g filter="url(#filter1_d_4_3)">
<path d="M696.853 98.9691L709.234 133.874H749.301L716.886 155.447L729.268 190.352L696.853 168.78L664.438 190.352L676.82 155.447L644.405 133.874H684.472L696.853 98.9691Z" fill="#B28937"/>
</g>
<g filter="url(#filter2_d_4_3)">
<path d="M195.516 32.9897L210.149 79.2927H257.5L219.192 107.909L233.824 154.212L195.516 125.596L157.208 154.212L171.84 107.909L133.532 79.2927H180.884L195.516 32.9897Z" fill="#B28937"/>
</g>
<g filter="url(#filter3_d_4_3)">
<path d="M538.431 32.9897L553.063 79.2927H600.415L562.106 107.909L576.739 154.212L538.431 125.596L500.122 154.212L514.755 107.909L476.447 79.2927H523.798L538.431 32.9897Z" fill="#B28937"/>
</g>
<g filter="url(#filter4_d_4_3)">
<path d="M366.973 0L384.082 54.1389H439.447L394.656 87.5985L411.764 141.737L366.973 108.278L322.182 141.737L339.291 87.5985L294.5 54.1389H349.865L366.973 0Z" fill="#B28937"/>
</g>
<path d="M152.006 258.376C150.374 253.661 148.289 250.579 145.75 249.128C143.393 247.496 139.494 246.68 134.054 246.68H129.43V223.016H178.118L218.646 352.488L258.358 223.016H307.59V246.68H302.966C297.345 246.68 293.355 247.496 290.998 249.128C288.641 250.579 286.555 253.661 284.742 258.376L236.054 399H201.51L152.006 258.376ZM299.228 372.616H327.788V399H299.228V372.616ZM345.117 375.336H352.189C355.997 375.336 358.717 374.52 360.349 372.888C361.981 371.075 362.797 368.355 362.797 364.728V256.744C362.797 253.299 361.981 250.76 360.349 249.128C358.717 247.496 355.997 246.68 352.189 246.68H345.117V223.016H415.565V246.68H408.493C404.867 246.68 402.237 247.496 400.605 249.128C399.155 250.76 398.429 253.299 398.429 256.744V365.272C398.429 368.717 399.155 371.256 400.605 372.888C402.237 374.52 404.867 375.336 408.493 375.336H415.565V399H345.117V375.336ZM433.103 372.616H461.663V399H433.103V372.616ZM478.992 375.336H485.792C493.046 375.336 496.672 371.981 496.672 365.272V256.744C496.672 253.299 495.766 250.76 493.952 249.128C492.32 247.496 489.6 246.68 485.792 246.68H478.992V223.016H573.648C592.688 223.016 607.558 227.731 618.256 237.16C629.136 246.589 634.576 260.28 634.576 278.232C634.576 296.003 629.046 309.965 617.984 320.12C607.104 330.275 592.235 335.352 573.376 335.352H531.488V365.272C531.488 371.981 535.024 375.336 542.096 375.336H549.712V399H478.992V375.336ZM568.752 311.688C579.088 311.688 586.795 308.968 591.872 303.528C596.95 297.907 599.488 289.475 599.488 278.232C599.488 266.627 597.04 258.467 592.144 253.752C587.248 249.037 579.451 246.68 568.752 246.68H531.488V311.688H568.752Z" fill="#F2F2F2"/>
<defs>
<filter id="filter0_d_4_3" x="0.699097" y="98.9691" width="112.896" height="99.3833" filterUnits="userSpaceOnUse" color-interpolation-filters="sRGB">
<feFlood flood-opacity="0" result="BackgroundImageFix"/>
<feColorMatrix in="SourceAlpha" type="matrix" values="0 0 0 0 0 0 0 0 0 0 0 0 0 0 0 0 0 0 127 0" result="hardAlpha"/>
<feOffset dy="4"/>
<feGaussianBlur stdDeviation="2"/>
<feColorMatrix type="matrix" values="0 0 0 0 0 0 0 0 0 0 0 0 0 0 0 0 0 0 0.25 0"/>
<feBlend mode="normal" in2="BackgroundImageFix" result="effect1_dropShadow_4_3"/>
<feBlend mode="normal" in="SourceGraphic" in2="effect1_dropShadow_4_3" result="shape"/>
</filter>
<filter id="filter1_d_4_3" x="640.405" y="98.9691" width="112.896" height="99.3833" filterUnits="userSpaceOnUse" color-interpolation-filters="sRGB">
<feFlood flood-opacity="0" result="BackgroundImageFix"/>
<feColorMatrix in="SourceAlpha" type="matrix" values="0 0 0 0 0 0 0 0 0 0 0 0 0 0 0 0 0 0 127 0" result="hardAlpha"/>
<feOffset dy="4"/>
<feGaussianBlur stdDeviation="2"/>
<feColorMatrix type="matrix" values="0 0 0 0 0 0 0 0 0 0 0 0 0 0 0 0 0 0 0.25 0"/>
<feBlend mode="normal" in2="BackgroundImageFix" result="effect1_dropShadow_4_3"/>
<feBlend mode="normal" in="SourceGraphic" in2="effect1_dropShadow_4_3" result="shape"/>
</filter>
<filter id="filter2_d_4_3" x="129.532" y="32.9897" width="131.968" height="129.223" filterUnits="userSpaceOnUse" color-interpolation-filters="sRGB">
<feFlood flood-opacity="0" result="BackgroundImageFix"/>
<feColorMatrix in="SourceAlpha" type="matrix" values="0 0 0 0 0 0 0 0 0 0 0 0 0 0 0 0 0 0 127 0" result="hardAlpha"/>
<feOffset dy="4"/>
<feGaussianBlur stdDeviation="2"/>
<feColorMatrix type="matrix" values="0 0 0 0 0 0 0 0 0 0 0 0 0 0 0 0 0 0 0.25 0"/>
<feBlend mode="normal" in2="BackgroundImageFix" result="effect1_dropShadow_4_3"/>
<feBlend mode="normal" in="SourceGraphic" in2="effect1_dropShadow_4_3" result="shape"/>
</filter>
<filter id="filter3_d_4_3" x="472.447" y="32.9897" width="131.968" height="129.223" filterUnits="userSpaceOnUse" color-interpolation-filters="sRGB">
<feFlood flood-opacity="0" result="BackgroundImageFix"/>
<feColorMatrix in="SourceAlpha" type="matrix" values="0 0 0 0 0 0 0 0 0 0 0 0 0 0 0 0 0 0 127 0" result="hardAlpha"/>
<feOffset dy="4"/>
<feGaussianBlur stdDeviation="2"/>
<feColorMatrix type="matrix" values="0 0 0 0 0 0 0 0 0 0 0 0 0 0 0 0 0 0 0.25 0"/>
<feBlend mode="normal" in2="BackgroundImageFix" result="effect1_dropShadow_4_3"/>
<feBlend mode="normal" in="SourceGraphic" in2="effect1_dropShadow_4_3" result="shape"/>
</filter>
<filter id="filter4_d_4_3" x="290.5" y="0" width="152.947" height="149.737" filterUnits="userSpaceOnUse" color-interpolation-filters="sRGB">
<feFlood flood-opacity="0" result="BackgroundImageFix"/>
<feColorMatrix in="SourceAlpha" type="matrix" values="0 0 0 0 0 0 0 0 0 0 0 0 0 0 0 0 0 0 127 0" result="hardAlpha"/>
<feOffset dy="4"/>
<feGaussianBlur stdDeviation="2"/>
<feColorMatrix type="matrix" values="0 0 0 0 0 0 0 0 0 0 0 0 0 0 0 0 0 0 0.25 0"/>
<feBlend mode="normal" in2="BackgroundImageFix" result="effect1_dropShadow_4_3"/>
<feBlend mode="normal" in="SourceGraphic" in2="effect1_dropShadow_4_3" result="shape"/>
</filter>
</defs>
</svg>
