<svg width="594" height="421" viewBox="0 0 594 421" fill="none" xmlns="http://www.w3.org/2000/svg">
<g filter="url(#filter0_d_2_19)">
<path d="M45.3824 76.701L55.1223 103.753L86.6414 103.753L61.1419 120.472L70.8819 147.523L45.3824 130.804L19.8828 147.523L29.6228 120.472L4.12328 103.753L35.6424 103.753L45.3824 76.701Z" fill="#FFC804"/>
</g>
<g filter="url(#filter1_d_2_19)">
<path d="M548.618 76.701L558.358 103.753L589.877 103.753L564.377 120.472L574.117 147.523L548.618 130.804L523.118 147.523L532.858 120.472L507.359 103.753L538.878 103.753L548.618 76.701Z" fill="#FFC804"/>
</g>
<g filter="url(#filter2_d_2_19)">
<path d="M154.233 25.567L165.744 61.4518H202.993L172.858 83.6299L184.368 119.515L154.233 97.3366L124.097 119.515L135.608 83.6299L105.472 61.4518H142.722L154.233 25.567Z" fill="#FFC804"/>
</g>
<g filter="url(#filter3_d_2_19)">
<path d="M423.992 25.567L435.503 61.4518H472.753L442.617 83.6299L454.128 119.515L423.992 97.3366L393.856 119.515L405.367 83.6299L375.231 61.4518H412.481L423.992 25.567Z" fill="#FFC804"/>
</g>
<g filter="url(#filter4_d_2_19)">
<path d="M289.112 0L302.571 41.9576H346.125L310.889 67.8889L324.348 109.846L289.112 83.9153L253.877 109.846L267.335 67.8889L232.1 41.9576H275.653L289.112 0Z" fill="#FFC804"/>
</g>
<path d="M106.211 201.124C104.843 197.172 103.095 194.588 100.967 193.372C98.9909 192.004 95.7229 191.32 91.1629 191.32H87.2869V171.484H128.099L162.071 280.012L195.359 171.484H236.627V191.32H232.751C228.039 191.32 224.695 192.004 222.719 193.372C220.743 194.588 218.995 197.172 217.475 201.124L176.663 319H147.707L106.211 201.124ZM229.618 296.884H253.558V319H229.618V296.884ZM268.084 299.164H274.012C277.204 299.164 279.484 298.48 280.852 297.112C282.22 295.592 282.904 293.312 282.904 290.272V199.756C282.904 196.868 282.22 194.74 280.852 193.372C279.484 192.004 277.204 191.32 274.012 191.32H268.084V171.484H327.136V191.32H321.208C318.168 191.32 315.964 192.004 314.596 193.372C313.38 194.74 312.772 196.868 312.772 199.756V290.728C312.772 293.616 313.38 295.744 314.596 297.112C315.964 298.48 318.168 299.164 321.208 299.164H327.136V319H268.084V299.164ZM341.836 296.884H365.776V319H341.836V296.884ZM380.302 299.164H386.002C392.082 299.164 395.122 296.352 395.122 290.728V199.756C395.122 196.868 394.362 194.74 392.842 193.372C391.474 192.004 389.194 191.32 386.002 191.32H380.302V171.484H459.646C475.606 171.484 488.07 175.436 497.038 183.34C506.158 191.244 510.718 202.72 510.718 217.768C510.718 232.664 506.082 244.368 496.81 252.88C487.69 261.392 475.226 265.648 459.418 265.648H424.306V290.728C424.306 296.352 427.27 299.164 433.198 299.164H439.582V319H380.302V299.164ZM455.542 245.812C464.206 245.812 470.666 243.532 474.922 238.972C479.178 234.26 481.306 227.192 481.306 217.768C481.306 208.04 479.254 201.2 475.15 197.248C471.046 193.296 464.51 191.32 455.542 191.32H424.306V245.812H455.542Z" fill="#333333"/>
<defs>
<filter id="filter0_d_2_19" x="0.123291" y="76.701" width="90.5182" height="78.8221" filterUnits="userSpaceOnUse" color-interpolation-filters="sRGB">
<feFlood flood-opacity="0" result="BackgroundImageFix"/>
<feColorMatrix in="SourceAlpha" type="matrix" values="0 0 0 0 0 0 0 0 0 0 0 0 0 0 0 0 0 0 127 0" result="hardAlpha"/>
<feOffset dy="4"/>
<feGaussianBlur stdDeviation="2"/>
<feColorMatrix type="matrix" values="0 0 0 0 0 0 0 0 0 0 0 0 0 0 0 0 0 0 0.25 0"/>
<feBlend mode="normal" in2="BackgroundImageFix" result="effect1_dropShadow_2_19"/>
<feBlend mode="normal" in="SourceGraphic" in2="effect1_dropShadow_2_19" result="shape"/>
</filter>
<filter id="filter1_d_2_19" x="503.359" y="76.701" width="90.5182" height="78.8221" filterUnits="userSpaceOnUse" color-interpolation-filters="sRGB">
<feFlood flood-opacity="0" result="BackgroundImageFix"/>
<feColorMatrix in="SourceAlpha" type="matrix" values="0 0 0 0 0 0 0 0 0 0 0 0 0 0 0 0 0 0 127 0" result="hardAlpha"/>
<feOffset dy="4"/>
<feGaussianBlur stdDeviation="2"/>
<feColorMatrix type="matrix" values="0 0 0 0 0 0 0 0 0 0 0 0 0 0 0 0 0 0 0.25 0"/>
<feBlend mode="normal" in2="BackgroundImageFix" result="effect1_dropShadow_2_19"/>
<feBlend mode="normal" in="SourceGraphic" in2="effect1_dropShadow_2_19" result="shape"/>
</filter>
<filter id="filter2_d_2_19" x="101.472" y="25.567" width="105.521" height="101.948" filterUnits="userSpaceOnUse" color-interpolation-filters="sRGB">
<feFlood flood-opacity="0" result="BackgroundImageFix"/>
<feColorMatrix in="SourceAlpha" type="matrix" values="0 0 0 0 0 0 0 0 0 0 0 0 0 0 0 0 0 0 127 0" result="hardAlpha"/>
<feOffset dy="4"/>
<feGaussianBlur stdDeviation="2"/>
<feColorMatrix type="matrix" values="0 0 0 0 0 0 0 0 0 0 0 0 0 0 0 0 0 0 0.25 0"/>
<feBlend mode="normal" in2="BackgroundImageFix" result="effect1_dropShadow_2_19"/>
<feBlend mode="normal" in="SourceGraphic" in2="effect1_dropShadow_2_19" result="shape"/>
</filter>
<filter id="filter3_d_2_19" x="371.231" y="25.567" width="105.521" height="101.948" filterUnits="userSpaceOnUse" color-interpolation-filters="sRGB">
<feFlood flood-opacity="0" result="BackgroundImageFix"/>
<feColorMatrix in="SourceAlpha" type="matrix" values="0 0 0 0 0 0 0 0 0 0 0 0 0 0 0 0 0 0 127 0" result="hardAlpha"/>
<feOffset dy="4"/>
<feGaussianBlur stdDeviation="2"/>
<feColorMatrix type="matrix" values="0 0 0 0 0 0 0 0 0 0 0 0 0 0 0 0 0 0 0.25 0"/>
<feBlend mode="normal" in2="BackgroundImageFix" result="effect1_dropShadow_2_19"/>
<feBlend mode="normal" in="SourceGraphic" in2="effect1_dropShadow_2_19" result="shape"/>
</filter>
<filter id="filter4_d_2_19" x="228.1" y="0" width="122.025" height="117.846" filterUnits="userSpaceOnUse" color-interpolation-filters="sRGB">
<feFlood flood-opacity="0" result="BackgroundImageFix"/>
<feColorMatrix in="SourceAlpha" type="matrix" values="0 0 0 0 0 0 0 0 0 0 0 0 0 0 0 0 0 0 127 0" result="hardAlpha"/>
<feOffset dy="4"/>
<feGaussianBlur stdDeviation="2"/>
<feColorMatrix type="matrix" values="0 0 0 0 0 0 0 0 0 0 0 0 0 0 0 0 0 0 0.25 0"/>
<feBlend mode="normal" in2="BackgroundImageFix" result="effect1_dropShadow_2_19"/>
<feBlend mode="normal" in="SourceGraphic" in2="effect1_dropShadow_2_19" result="shape"/>
</filter>
</defs>
</svg>
