<svg width="508" height="382" viewBox="0 0 508 382" fill="none" xmlns="http://www.w3.org/2000/svg">
<g filter="url(#filter0_d_2_19)">
<ellipse cx="254" cy="230" rx="250" ry="144" fill="url(#paint0_radial_2_19)"/>
</g>
<g filter="url(#filter1_d_2_19)">
<path d="M94.0402 48L100.252 64.9291L120.352 64.9291L104.09 75.3918L110.302 92.3209L94.0402 81.8582L77.7786 92.3209L83.99 75.3918L67.7283 64.9291L87.8288 64.9291L94.0402 48Z" fill="#FFC804"/>
</g>
<g filter="url(#filter2_d_2_19)">
<path d="M414.966 48L421.177 64.9291L441.278 64.9291L425.016 75.3918L431.227 92.3209L414.966 81.8582L398.704 92.3209L404.916 75.3918L388.654 64.9291L408.754 64.9291L414.966 48Z" fill="#FFC804"/>
</g>
<g filter="url(#filter3_d_2_19)">
<path d="M163.457 16L170.797 38.4569H194.553L175.334 52.3361L182.675 74.7931L163.457 60.9139L144.238 74.7931L151.579 52.3361L132.361 38.4569H156.116L163.457 16Z" fill="#FFC804"/>
</g>
<g filter="url(#filter4_d_2_19)">
<path d="M335.489 16L342.83 38.4569H366.585L347.366 52.3361L354.707 74.7931L335.489 60.9139L316.271 74.7931L323.611 52.3361L304.393 38.4569H328.148L335.489 16Z" fill="#FFC804"/>
</g>
<g filter="url(#filter5_d_2_19)">
<path d="M249.473 0L258.056 26.2574H285.831L263.36 42.4853L271.944 68.7426L249.473 52.5147L227.002 68.7426L235.585 42.4853L213.115 26.2574H240.89L249.473 0Z" fill="#FFC804"/>
</g>
<path d="M134.154 170.104C133.29 167.704 132.282 166.12 131.13 165.352C129.978 164.584 128.058 164.2 125.37 164.2H122.346V153.832H144.522L168.57 226.984L192.33 153.832H214.65V164.2H211.626C208.938 164.2 207.018 164.584 205.866 165.352C204.714 166.12 203.706 167.704 202.842 170.104L175.914 247H161.37L134.154 170.104ZM211.958 234.328H225.35V247H211.958V234.328ZM236.252 236.488H240.428C242.348 236.488 243.692 236.056 244.46 235.192C245.324 234.328 245.756 232.936 245.756 231.016V169.672C245.756 167.848 245.324 166.552 244.46 165.784C243.692 164.92 242.348 164.488 240.428 164.488H236.252V153.832H270.38V164.488H266.204C264.38 164.488 263.036 164.92 262.172 165.784C261.404 166.552 261.02 167.848 261.02 169.672V231.16C261.02 233.08 261.404 234.472 262.172 235.336C263.036 236.104 264.38 236.488 266.204 236.488H270.38V247H236.252V236.488ZM281.286 234.328H294.678V247H281.286V234.328ZM305.58 236.488H309.468C311.58 236.488 313.02 236.056 313.788 235.192C314.652 234.328 315.084 232.984 315.084 231.16V169.672C315.084 167.848 314.652 166.552 313.788 165.784C313.02 164.92 311.58 164.488 309.468 164.488H305.58V153.832H354.972C364.572 153.832 372.06 156.328 377.436 161.32C382.908 166.216 385.644 173.272 385.644 182.488C385.644 191.704 382.86 199 377.292 204.376C371.82 209.656 364.332 212.296 354.828 212.296H330.348V231.16C330.348 232.984 330.732 234.328 331.5 235.192C332.364 236.056 333.852 236.488 335.964 236.488H339.708V247H305.58V236.488ZM352.812 201.64C358.86 201.64 363.324 200.104 366.204 197.032C369.18 193.864 370.668 189.016 370.668 182.488C370.668 175.864 369.276 171.208 366.492 168.52C363.708 165.832 359.148 164.488 352.812 164.488H330.348V201.64H352.812Z" fill="#0F0F0F" fill-opacity="0.85"/>
<path d="M89.6857 309.956H90.4977C90.8711 309.956 91.1324 309.872 91.2817 309.704C91.4497 309.536 91.5337 309.265 91.5337 308.892V296.964C91.5337 296.609 91.4497 296.357 91.2817 296.208C91.1324 296.04 90.8711 295.956 90.4977 295.956H89.6857V293.884H103.098V297.496H100.41V296.936C100.41 296.581 100.326 296.329 100.158 296.18C99.9897 296.012 99.7191 295.928 99.3457 295.928H94.5017V301.892H99.3457V303.964H94.5017V309.956H99.3457C99.7191 309.956 99.9897 309.881 100.158 309.732C100.326 309.564 100.41 309.293 100.41 308.92V308.36H103.098V312H89.6857V309.956ZM111.692 312.42C110.385 312.42 109.144 312.233 107.968 311.86C106.792 311.487 105.784 310.983 104.944 310.348V307.604H107.94V309.424C108.406 309.704 108.976 309.928 109.648 310.096C110.338 310.264 111.038 310.348 111.748 310.348C112.868 310.348 113.717 310.115 114.296 309.648C114.874 309.163 115.164 308.481 115.164 307.604C115.164 306.988 115.005 306.475 114.688 306.064C114.389 305.653 113.96 305.299 113.4 305C112.84 304.701 112.065 304.356 111.076 303.964C109.694 303.423 108.584 302.909 107.744 302.424C106.904 301.939 106.25 301.369 105.784 300.716C105.336 300.044 105.112 299.232 105.112 298.28C105.112 296.693 105.718 295.499 106.932 294.696C108.145 293.875 109.704 293.464 111.608 293.464C112.858 293.464 113.997 293.641 115.024 293.996C116.069 294.351 116.965 294.817 117.712 295.396V298H114.716V296.264C113.894 295.779 112.812 295.536 111.468 295.536C110.385 295.536 109.536 295.751 108.92 296.18C108.304 296.609 107.996 297.281 107.996 298.196C107.996 298.831 108.192 299.363 108.584 299.792C108.976 300.221 109.424 300.557 109.928 300.8C110.432 301.043 111.216 301.379 112.28 301.808C113.698 302.368 114.79 302.863 115.556 303.292C116.321 303.721 116.928 304.272 117.376 304.944C117.824 305.597 118.048 306.447 118.048 307.492C118.048 308.444 117.796 309.293 117.292 310.04C116.806 310.768 116.088 311.347 115.136 311.776C114.184 312.205 113.036 312.42 111.692 312.42ZM122.914 309.928H123.67C124.08 309.928 124.36 309.853 124.51 309.704C124.678 309.536 124.762 309.275 124.762 308.92V295.984H122.186C121.812 295.984 121.542 296.068 121.374 296.236C121.206 296.385 121.122 296.637 121.122 296.992V297.888H118.91V293.912H133.554V297.888H131.342V296.992C131.342 296.619 131.258 296.357 131.09 296.208C130.94 296.059 130.67 295.984 130.278 295.984H127.73V308.92C127.73 309.275 127.804 309.536 127.954 309.704C128.122 309.853 128.411 309.928 128.822 309.928H129.578V312H122.914V309.928ZM135.131 309.956H135.943C136.316 309.956 136.578 309.872 136.727 309.704C136.895 309.536 136.979 309.265 136.979 308.892V296.964C136.979 296.609 136.895 296.357 136.727 296.208C136.578 296.04 136.316 295.956 135.943 295.956H135.131V293.884H141.655V295.956H140.955C140.6 295.956 140.339 296.04 140.171 296.208C140.022 296.357 139.947 296.609 139.947 296.964V301.892H147.563V296.992C147.563 296.619 147.488 296.357 147.339 296.208C147.19 296.04 146.928 295.956 146.555 295.956H145.827V293.884H152.379V295.956H151.567C151.194 295.956 150.923 296.04 150.755 296.208C150.606 296.357 150.531 296.609 150.531 296.964V308.892C150.531 309.265 150.606 309.536 150.755 309.704C150.923 309.872 151.194 309.956 151.567 309.956H152.379V312H145.827V309.956H146.555C146.91 309.956 147.162 309.872 147.311 309.704C147.479 309.536 147.563 309.265 147.563 308.892V303.936H139.947V308.892C139.947 309.265 140.022 309.536 140.171 309.704C140.339 309.872 140.6 309.956 140.955 309.956H141.655V312H135.131V309.956ZM161.273 287.36H164.773L161.581 292.372H159.033L161.273 287.36ZM154.217 309.956H155.029C155.402 309.956 155.664 309.872 155.813 309.704C155.981 309.536 156.065 309.265 156.065 308.892V296.964C156.065 296.609 155.981 296.357 155.813 296.208C155.664 296.04 155.402 295.956 155.029 295.956H154.217V293.884H167.629V297.496H164.941V296.936C164.941 296.581 164.857 296.329 164.689 296.18C164.521 296.012 164.25 295.928 163.877 295.928H159.033V301.892H163.877V303.964H159.033V309.956H163.877C164.25 309.956 164.521 309.881 164.689 309.732C164.857 309.564 164.941 309.293 164.941 308.92V308.36H167.629V312H154.217V309.956ZM173.199 309.928H173.955C174.365 309.928 174.645 309.853 174.795 309.704C174.963 309.536 175.047 309.275 175.047 308.92V295.984H172.471C172.097 295.984 171.827 296.068 171.659 296.236C171.491 296.385 171.407 296.637 171.407 296.992V297.888H169.195V293.912H183.839V297.888H181.627V296.992C181.627 296.619 181.543 296.357 181.375 296.208C181.225 296.059 180.955 295.984 180.563 295.984H178.015V308.92C178.015 309.275 178.089 309.536 178.239 309.704C178.407 309.853 178.696 309.928 179.107 309.928H179.863V312H173.199V309.928ZM185.416 309.956H186.228C186.602 309.956 186.863 309.872 187.012 309.704C187.18 309.536 187.264 309.265 187.264 308.892V296.964C187.264 296.609 187.18 296.357 187.012 296.208C186.863 296.04 186.602 295.956 186.228 295.956H185.416V293.884H192.052V295.956H191.24C190.886 295.956 190.624 296.04 190.456 296.208C190.307 296.357 190.232 296.609 190.232 296.964V308.92C190.232 309.293 190.307 309.564 190.456 309.732C190.624 309.881 190.886 309.956 191.24 309.956H192.052V312H185.416V309.956ZM204.584 316.06C203.24 316.06 202.186 315.715 201.42 315.024C200.674 314.333 200.216 313.447 200.048 312.364C197.678 312.159 195.895 311.244 194.7 309.62C193.506 307.977 192.908 305.775 192.908 303.012C192.908 300.007 193.58 297.673 194.924 296.012C196.287 294.332 198.387 293.492 201.224 293.492C204.043 293.492 206.124 294.332 207.468 296.012C208.831 297.673 209.512 300.007 209.512 303.012C209.512 305.756 208.915 307.949 207.72 309.592C206.544 311.216 204.78 312.14 202.428 312.364C202.522 312.961 202.746 313.381 203.1 313.624C203.474 313.867 203.978 313.988 204.612 313.988C205.079 313.988 205.452 313.941 205.732 313.848C206.012 313.773 206.264 313.633 206.488 313.428V312.672H208.784V314.324C207.944 315.481 206.544 316.06 204.584 316.06ZM201.224 310.348C204.808 310.348 206.6 307.903 206.6 303.012C206.6 298.047 204.808 295.564 201.224 295.564C197.622 295.564 195.82 298.047 195.82 303.012C195.82 307.903 197.622 310.348 201.224 310.348ZM218.97 312.42C216.674 312.42 214.948 311.925 213.79 310.936C212.633 309.947 212.054 308.603 212.054 306.904V296.908C212.054 296.553 211.97 296.301 211.802 296.152C211.653 295.984 211.392 295.9 211.018 295.9H210.374V293.884H216.562V295.9H216.03C215.676 295.9 215.414 295.984 215.246 296.152C215.097 296.32 215.022 296.591 215.022 296.964V307.072C215.022 308.192 215.349 309.023 216.002 309.564C216.674 310.105 217.664 310.376 218.97 310.376C221.602 310.376 222.918 309.275 222.918 307.072V296.964C222.918 296.591 222.834 296.32 222.666 296.152C222.517 295.984 222.256 295.9 221.882 295.9H221.35V293.884H227.594V295.9H226.922C226.568 295.9 226.306 295.984 226.138 296.152C225.97 296.301 225.886 296.553 225.886 296.908V306.904C225.886 308.603 225.308 309.947 224.15 310.936C222.993 311.925 221.266 312.42 218.97 312.42ZM229.166 309.956H229.978C230.352 309.956 230.613 309.872 230.762 309.704C230.93 309.536 231.014 309.265 231.014 308.892V296.964C231.014 296.609 230.93 296.357 230.762 296.208C230.613 296.04 230.352 295.956 229.978 295.956H229.166V293.884H242.578V297.496H239.89V296.936C239.89 296.581 239.806 296.329 239.638 296.18C239.47 296.012 239.2 295.928 238.826 295.928H233.982V301.892H238.826V303.964H233.982V309.956H238.826C239.2 309.956 239.47 309.881 239.638 309.732C239.806 309.564 239.89 309.293 239.89 308.92V308.36H242.578V312H229.166V309.956ZM254.213 309.956H255.081C255.51 309.956 255.837 309.881 256.061 309.732C256.304 309.583 256.49 309.321 256.621 308.948L261.969 293.884H264.797L270.089 308.948C270.22 309.321 270.406 309.583 270.649 309.732C270.892 309.881 271.228 309.956 271.657 309.956H272.497V312H266.113V309.956H267.513L266.281 306.372H260.457L259.225 309.956H260.625V312H254.213V309.956ZM265.721 304.608L263.397 297.776L261.017 304.608H265.721ZM280.549 312.42C278.253 312.42 276.526 311.925 275.369 310.936C274.211 309.947 273.633 308.603 273.633 306.904V296.908C273.633 296.553 273.549 296.301 273.381 296.152C273.231 295.984 272.97 295.9 272.597 295.9H271.953V293.884H278.141V295.9H277.609C277.254 295.9 276.993 295.984 276.825 296.152C276.675 296.32 276.601 296.591 276.601 296.964V307.072C276.601 308.192 276.927 309.023 277.581 309.564C278.253 310.105 279.242 310.376 280.549 310.376C283.181 310.376 284.497 309.275 284.497 307.072V296.964C284.497 296.591 284.413 296.32 284.245 296.152C284.095 295.984 283.834 295.9 283.461 295.9H282.929V293.884H289.173V295.9H288.501C288.146 295.9 287.885 295.984 287.717 296.152C287.549 296.301 287.465 296.553 287.465 296.908V306.904C287.465 308.603 286.886 309.947 285.729 310.936C284.571 311.925 282.845 312.42 280.549 312.42ZM294.468 309.928H295.224C295.635 309.928 295.915 309.853 296.064 309.704C296.232 309.536 296.316 309.275 296.316 308.92V295.984H293.74C293.367 295.984 293.096 296.068 292.928 296.236C292.76 296.385 292.676 296.637 292.676 296.992V297.888H290.464V293.912H305.108V297.888H302.896V296.992C302.896 296.619 302.812 296.357 302.644 296.208C302.495 296.059 302.224 295.984 301.832 295.984H299.284V308.92C299.284 309.275 299.359 309.536 299.508 309.704C299.676 309.853 299.966 309.928 300.376 309.928H301.132V312H294.468V309.928ZM314.017 312.42C311.199 312.42 309.108 311.645 307.745 310.096C306.383 308.528 305.701 306.167 305.701 303.012C305.701 299.82 306.364 297.431 307.689 295.844C309.033 294.257 311.143 293.464 314.017 293.464C316.873 293.464 318.964 294.257 320.289 295.844C321.633 297.431 322.305 299.82 322.305 303.012C322.305 306.167 321.624 308.528 320.261 310.096C318.899 311.645 316.817 312.42 314.017 312.42ZM314.017 310.348C315.847 310.348 317.2 309.779 318.077 308.64C318.955 307.501 319.393 305.625 319.393 303.012C319.393 300.343 318.955 298.429 318.077 297.272C317.219 296.115 315.865 295.536 314.017 295.536C312.151 295.536 310.779 296.115 309.901 297.272C309.043 298.429 308.613 300.343 308.613 303.012C308.613 305.625 309.052 307.501 309.929 308.64C310.807 309.779 312.169 310.348 314.017 310.348ZM323.037 309.956H323.849C324.223 309.956 324.484 309.872 324.633 309.704C324.801 309.536 324.885 309.265 324.885 308.892V296.992C324.885 296.619 324.801 296.348 324.633 296.18C324.484 296.012 324.223 295.928 323.849 295.928H323.037V293.884H328.049L332.977 305.28L337.877 293.884H342.889V295.928H342.049C341.695 295.928 341.433 296.012 341.265 296.18C341.116 296.348 341.041 296.619 341.041 296.992V308.892C341.041 309.265 341.116 309.536 341.265 309.704C341.433 309.872 341.695 309.956 342.049 309.956H342.889V312H336.253V309.956H337.093C337.448 309.956 337.7 309.881 337.849 309.732C338.017 309.564 338.101 309.293 338.101 308.92V298.784L334.097 308.108H331.829L327.797 298.784V308.92C327.797 309.275 327.881 309.536 328.049 309.704C328.217 309.872 328.479 309.956 328.833 309.956H329.673V312H323.037V309.956ZM351.943 312.42C349.124 312.42 347.034 311.645 345.671 310.096C344.308 308.528 343.627 306.167 343.627 303.012C343.627 299.82 344.29 297.431 345.615 295.844C346.959 294.257 349.068 293.464 351.943 293.464C354.799 293.464 356.89 294.257 358.215 295.844C359.559 297.431 360.231 299.82 360.231 303.012C360.231 306.167 359.55 308.528 358.187 310.096C356.824 311.645 354.743 312.42 351.943 312.42ZM351.943 310.348C353.772 310.348 355.126 309.779 356.003 308.64C356.88 307.501 357.319 305.625 357.319 303.012C357.319 300.343 356.88 298.429 356.003 297.272C355.144 296.115 353.791 295.536 351.943 295.536C350.076 295.536 348.704 296.115 347.827 297.272C346.968 298.429 346.539 300.343 346.539 303.012C346.539 305.625 346.978 307.501 347.855 308.64C348.732 309.779 350.095 310.348 351.943 310.348ZM364.824 309.928H365.58C365.99 309.928 366.27 309.853 366.42 309.704C366.588 309.536 366.672 309.275 366.672 308.92V295.984H364.096C363.722 295.984 363.452 296.068 363.284 296.236C363.116 296.385 363.032 296.637 363.032 296.992V297.888H360.82V293.912H375.464V297.888H373.252V296.992C373.252 296.619 373.168 296.357 373 296.208C372.85 296.059 372.58 295.984 372.188 295.984H369.64V308.92C369.64 309.275 369.714 309.536 369.864 309.704C370.032 309.853 370.321 309.928 370.732 309.928H371.488V312H364.824V309.928ZM377.041 309.956H377.853C378.227 309.956 378.488 309.872 378.637 309.704C378.805 309.536 378.889 309.265 378.889 308.892V296.964C378.889 296.609 378.805 296.357 378.637 296.208C378.488 296.04 378.227 295.956 377.853 295.956H377.041V293.884H383.677V295.956H382.865C382.511 295.956 382.249 296.04 382.081 296.208C381.932 296.357 381.857 296.609 381.857 296.964V308.92C381.857 309.293 381.932 309.564 382.081 309.732C382.249 309.881 382.511 309.956 382.865 309.956H383.677V312H377.041V309.956ZM387.814 297.048C387.646 296.581 387.45 296.273 387.226 296.124C387.002 295.975 386.628 295.9 386.106 295.9H385.518V293.884H389.83L394.506 308.108L399.126 293.884H403.466V295.9H402.878C402.355 295.9 401.982 295.975 401.758 296.124C401.534 296.273 401.338 296.581 401.17 297.048L395.934 312H393.106L387.814 297.048ZM404.904 309.956H405.716C406.09 309.956 406.351 309.872 406.5 309.704C406.668 309.536 406.752 309.265 406.752 308.892V296.964C406.752 296.609 406.668 296.357 406.5 296.208C406.351 296.04 406.09 295.956 405.716 295.956H404.904V293.884H418.316V297.496H415.628V296.936C415.628 296.581 415.544 296.329 415.376 296.18C415.208 296.012 414.938 295.928 414.564 295.928H409.72V301.892H414.564V303.964H409.72V309.956H414.564C414.938 309.956 415.208 309.881 415.376 309.732C415.544 309.564 415.628 309.293 415.628 308.92V308.36H418.316V312H404.904V309.956Z" fill="black" fill-opacity="0.85"/>
<defs>
<filter id="filter0_d_2_19" x="0" y="86" width="508" height="296" filterUnits="userSpaceOnUse" color-interpolation-filters="sRGB">
<feFlood flood-opacity="0" result="BackgroundImageFix"/>
<feColorMatrix in="SourceAlpha" type="matrix" values="0 0 0 0 0 0 0 0 0 0 0 0 0 0 0 0 0 0 127 0" result="hardAlpha"/>
<feOffset dy="4"/>
<feGaussianBlur stdDeviation="2"/>
<feColorMatrix type="matrix" values="0 0 0 0 0 0 0 0 0 0 0 0 0 0 0 0 0 0 0.25 0"/>
<feBlend mode="normal" in2="BackgroundImageFix" result="effect1_dropShadow_2_19"/>
<feBlend mode="normal" in="SourceGraphic" in2="effect1_dropShadow_2_19" result="shape"/>
</filter>
<filter id="filter1_d_2_19" x="63.7283" y="48" width="60.6239" height="52.3209" filterUnits="userSpaceOnUse" color-interpolation-filters="sRGB">
<feFlood flood-opacity="0" result="BackgroundImageFix"/>
<feColorMatrix in="SourceAlpha" type="matrix" values="0 0 0 0 0 0 0 0 0 0 0 0 0 0 0 0 0 0 127 0" result="hardAlpha"/>
<feOffset dy="4"/>
<feGaussianBlur stdDeviation="2"/>
<feColorMatrix type="matrix" values="0 0 0 0 0 0 0 0 0 0 0 0 0 0 0 0 0 0 0.25 0"/>
<feBlend mode="normal" in2="BackgroundImageFix" result="effect1_dropShadow_2_19"/>
<feBlend mode="normal" in="SourceGraphic" in2="effect1_dropShadow_2_19" result="shape"/>
</filter>
<filter id="filter2_d_2_19" x="384.654" y="48" width="60.6238" height="52.3209" filterUnits="userSpaceOnUse" color-interpolation-filters="sRGB">
<feFlood flood-opacity="0" result="BackgroundImageFix"/>
<feColorMatrix in="SourceAlpha" type="matrix" values="0 0 0 0 0 0 0 0 0 0 0 0 0 0 0 0 0 0 127 0" result="hardAlpha"/>
<feOffset dy="4"/>
<feGaussianBlur stdDeviation="2"/>
<feColorMatrix type="matrix" values="0 0 0 0 0 0 0 0 0 0 0 0 0 0 0 0 0 0 0.25 0"/>
<feBlend mode="normal" in2="BackgroundImageFix" result="effect1_dropShadow_2_19"/>
<feBlend mode="normal" in="SourceGraphic" in2="effect1_dropShadow_2_19" result="shape"/>
</filter>
<filter id="filter3_d_2_19" x="128.361" y="16" width="70.1918" height="66.793" filterUnits="userSpaceOnUse" color-interpolation-filters="sRGB">
<feFlood flood-opacity="0" result="BackgroundImageFix"/>
<feColorMatrix in="SourceAlpha" type="matrix" values="0 0 0 0 0 0 0 0 0 0 0 0 0 0 0 0 0 0 127 0" result="hardAlpha"/>
<feOffset dy="4"/>
<feGaussianBlur stdDeviation="2"/>
<feColorMatrix type="matrix" values="0 0 0 0 0 0 0 0 0 0 0 0 0 0 0 0 0 0 0.25 0"/>
<feBlend mode="normal" in2="BackgroundImageFix" result="effect1_dropShadow_2_19"/>
<feBlend mode="normal" in="SourceGraphic" in2="effect1_dropShadow_2_19" result="shape"/>
</filter>
<filter id="filter4_d_2_19" x="300.393" y="16" width="70.1918" height="66.793" filterUnits="userSpaceOnUse" color-interpolation-filters="sRGB">
<feFlood flood-opacity="0" result="BackgroundImageFix"/>
<feColorMatrix in="SourceAlpha" type="matrix" values="0 0 0 0 0 0 0 0 0 0 0 0 0 0 0 0 0 0 127 0" result="hardAlpha"/>
<feOffset dy="4"/>
<feGaussianBlur stdDeviation="2"/>
<feColorMatrix type="matrix" values="0 0 0 0 0 0 0 0 0 0 0 0 0 0 0 0 0 0 0.25 0"/>
<feBlend mode="normal" in2="BackgroundImageFix" result="effect1_dropShadow_2_19"/>
<feBlend mode="normal" in="SourceGraphic" in2="effect1_dropShadow_2_19" result="shape"/>
</filter>
<filter id="filter5_d_2_19" x="209.115" y="0" width="80.7166" height="76.7427" filterUnits="userSpaceOnUse" color-interpolation-filters="sRGB">
<feFlood flood-opacity="0" result="BackgroundImageFix"/>
<feColorMatrix in="SourceAlpha" type="matrix" values="0 0 0 0 0 0 0 0 0 0 0 0 0 0 0 0 0 0 127 0" result="hardAlpha"/>
<feOffset dy="4"/>
<feGaussianBlur stdDeviation="2"/>
<feColorMatrix type="matrix" values="0 0 0 0 0 0 0 0 0 0 0 0 0 0 0 0 0 0 0.25 0"/>
<feBlend mode="normal" in2="BackgroundImageFix" result="effect1_dropShadow_2_19"/>
<feBlend mode="normal" in="SourceGraphic" in2="effect1_dropShadow_2_19" result="shape"/>
</filter>
<radialGradient id="paint0_radial_2_19" cx="0" cy="0" r="1" gradientUnits="userSpaceOnUse" gradientTransform="translate(259.533 225) rotate(1.17169) scale(244.518 419.434)">
<stop stop-color="#FFC804"/>
<stop offset="0.71308" stop-color="#FFC804" stop-opacity="0.939566"/>
<stop offset="1" stop-color="#FFC804" stop-opacity="0.427083"/>
<stop offset="1" stop-color="#FFC804" stop-opacity="0"/>
<stop offset="1" stop-color="#FFC804" stop-opacity="0.504439"/>
</radialGradient>
</defs>
</svg>
