<svg width="1088" height="814" viewBox="0 0 1088 814" fill="none" xmlns="http://www.w3.org/2000/svg">
<g filter="url(#filter0_d_2_19)">
<ellipse cx="544" cy="495.466" rx="540" ry="309.947" fill="url(#paint0_radial_2_19)"/>
</g>
<g filter="url(#filter1_d_2_19)">
<path d="M198.487 103.728L211.904 140.166H255.321L220.195 162.686L233.612 199.124L198.487 176.604L163.362 199.124L176.778 162.686L141.653 140.166H185.07L198.487 103.728Z" fill="#FFC804"/>
</g>
<g filter="url(#filter2_d_2_19)">
<path d="M891.686 103.728L905.103 140.166H948.52L913.395 162.686L926.811 199.124L891.686 176.604L856.561 199.124L869.977 162.686L834.852 140.166H878.269L891.686 103.728Z" fill="#FFC804"/>
</g>
<g filter="url(#filter3_d_2_19)">
<path d="M348.427 34.8507L364.283 83.1872H415.594L374.082 113.061L389.938 161.397L348.427 131.524L306.915 161.397L322.771 113.061L281.259 83.1872H332.571L348.427 34.8507Z" fill="#FFC804"/>
</g>
<g filter="url(#filter4_d_2_19)">
<path d="M720.016 34.8507L735.872 83.1872H787.183L745.672 113.061L761.528 161.397L720.016 131.524L678.504 161.397L694.36 113.061L652.849 83.1872H704.16L720.016 34.8507Z" fill="#FFC804"/>
</g>
<g filter="url(#filter5_d_2_19)">
<path d="M534.221 0.411987L552.761 56.9285H612.755L564.219 91.8576L582.758 148.374L534.221 113.445L485.685 148.374L504.224 91.8576L455.687 56.9285H515.682L534.221 0.411987Z" fill="#FFC804"/>
</g>
<path d="M304.308 344.087C302.58 339.287 300.564 336.119 298.26 334.583C295.956 333.047 292.116 332.279 286.74 332.279H280.691V311.543H325.044L373.14 457.847L420.66 311.543H465.3V332.279H459.252C453.876 332.279 450.036 333.047 447.732 334.583C445.428 336.119 443.412 339.287 441.684 344.087L387.828 497.879H358.74L304.308 344.087ZM459.915 472.535H486.699V497.879H459.915V472.535ZM508.504 476.855H516.856C520.696 476.855 523.384 475.991 524.92 474.263C526.648 472.535 527.512 469.751 527.512 465.911V343.223C527.512 339.575 526.648 336.983 524.92 335.447C523.384 333.719 520.696 332.855 516.856 332.855H508.504V311.543H576.76V332.855H568.408C564.76 332.855 562.072 333.719 560.344 335.447C558.808 336.983 558.04 339.575 558.04 343.223V466.199C558.04 470.039 558.808 472.823 560.344 474.551C562.072 476.087 564.76 476.855 568.408 476.855H576.76V497.879H508.504V476.855ZM598.572 472.535H625.356V497.879H598.572V472.535ZM647.16 476.855H654.936C659.16 476.855 662.04 475.991 663.576 474.263C665.304 472.535 666.168 469.847 666.168 466.199V343.223C666.168 339.575 665.304 336.983 663.576 335.447C662.04 333.719 659.16 332.855 654.936 332.855H647.16V311.543H745.944C765.144 311.543 780.12 316.535 790.872 326.519C801.816 336.311 807.288 350.423 807.288 368.855C807.288 387.287 801.72 401.879 790.584 412.631C779.64 423.191 764.664 428.471 745.656 428.471H696.696V466.199C696.696 469.847 697.464 472.535 699 474.263C700.728 475.991 703.704 476.855 707.928 476.855H715.416V497.879H647.16V476.855ZM741.624 407.159C753.72 407.159 762.648 404.087 768.408 397.943C774.36 391.607 777.336 381.911 777.336 368.855C777.336 355.607 774.552 346.295 768.984 340.919C763.416 335.543 754.296 332.855 741.624 332.855H696.696V407.159H741.624Z" fill="#0F0F0F" fill-opacity="0.85"/>
<path d="M168.424 633.8H170.281C171.134 633.8 171.731 633.608 172.073 633.224C172.457 632.84 172.649 632.221 172.649 631.368V604.104C172.649 603.293 172.457 602.717 172.073 602.376C171.731 601.992 171.134 601.8 170.281 601.8H168.424V597.064H199.081V605.32H192.937V604.04C192.937 603.229 192.745 602.653 192.361 602.312C191.977 601.928 191.358 601.736 190.505 601.736H179.433V615.368H190.505V620.104H179.433V633.8H190.505C191.358 633.8 191.977 633.629 192.361 633.288C192.745 632.904 192.937 632.285 192.937 631.432V630.152H199.081V638.472H168.424V633.8ZM218.724 639.432C215.737 639.432 212.9 639.005 210.212 638.152C207.524 637.298 205.22 636.146 203.299 634.696V628.424H210.148V632.584C211.214 633.224 212.516 633.736 214.052 634.12C215.63 634.504 217.23 634.696 218.852 634.696C221.412 634.696 223.353 634.162 224.676 633.096C225.998 631.986 226.66 630.429 226.66 628.424C226.66 627.016 226.297 625.842 225.572 624.904C224.889 623.965 223.908 623.154 222.628 622.472C221.348 621.789 219.577 621 217.316 620.104C214.158 618.866 211.62 617.693 209.7 616.584C207.78 615.474 206.286 614.173 205.22 612.68C204.196 611.144 203.684 609.288 203.684 607.112C203.684 603.485 205.07 600.754 207.844 598.92C210.617 597.042 214.18 596.104 218.532 596.104C221.39 596.104 223.993 596.509 226.34 597.32C228.729 598.13 230.777 599.197 232.484 600.52V606.472H225.636V602.504C223.758 601.394 221.284 600.84 218.212 600.84C215.737 600.84 213.796 601.33 212.388 602.312C210.98 603.293 210.276 604.829 210.276 606.92C210.276 608.37 210.724 609.586 211.62 610.568C212.516 611.549 213.54 612.317 214.692 612.872C215.844 613.426 217.636 614.194 220.068 615.176C223.31 616.456 225.806 617.586 227.556 618.568C229.305 619.549 230.692 620.808 231.716 622.344C232.74 623.837 233.252 625.778 233.252 628.168C233.252 630.344 232.676 632.285 231.524 633.992C230.414 635.656 228.772 636.978 226.596 637.96C224.42 638.941 221.796 639.432 218.724 639.432ZM244.374 633.736H246.102C247.041 633.736 247.681 633.565 248.022 633.224C248.406 632.84 248.598 632.242 248.598 631.432V601.864H242.71C241.857 601.864 241.238 602.056 240.854 602.44C240.47 602.781 240.278 603.357 240.278 604.168V606.216H235.222V597.128H268.694V606.216H263.638V604.168C263.638 603.314 263.446 602.717 263.062 602.376C262.721 602.034 262.102 601.864 261.206 601.864H255.382V631.432C255.382 632.242 255.553 632.84 255.894 633.224C256.278 633.565 256.939 633.736 257.878 633.736H259.606V638.472H244.374V633.736ZM272.299 633.8H274.156C275.009 633.8 275.606 633.608 275.948 633.224C276.332 632.84 276.524 632.221 276.524 631.368V604.104C276.524 603.293 276.332 602.717 275.948 602.376C275.606 601.992 275.009 601.8 274.156 601.8H272.299V597.064H287.212V601.8H285.612C284.801 601.8 284.204 601.992 283.82 602.376C283.478 602.717 283.308 603.293 283.308 604.104V615.368H300.716V604.168C300.716 603.314 300.545 602.717 300.204 602.376C299.862 601.992 299.265 601.8 298.412 601.8H296.748V597.064H311.724V601.8H309.868C309.014 601.8 308.396 601.992 308.012 602.376C307.67 602.717 307.5 603.293 307.5 604.104V631.368C307.5 632.221 307.67 632.84 308.012 633.224C308.396 633.608 309.014 633.8 309.868 633.8H311.724V638.472H296.748V633.8H298.412C299.222 633.8 299.798 633.608 300.14 633.224C300.524 632.84 300.716 632.221 300.716 631.368V620.04H283.308V631.368C283.308 632.221 283.478 632.84 283.82 633.224C284.204 633.608 284.801 633.8 285.612 633.8H287.212V638.472H272.299V633.8ZM332.053 582.152H340.053L332.757 593.608H326.933L332.053 582.152ZM315.924 633.8H317.781C318.634 633.8 319.231 633.608 319.573 633.224C319.957 632.84 320.149 632.221 320.149 631.368V604.104C320.149 603.293 319.957 602.717 319.573 602.376C319.231 601.992 318.634 601.8 317.781 601.8H315.924V597.064H346.581V605.32H340.437V604.04C340.437 603.229 340.245 602.653 339.861 602.312C339.477 601.928 338.858 601.736 338.005 601.736H326.933V615.368H338.005V620.104H326.933V633.8H338.005C338.858 633.8 339.477 633.629 339.861 633.288C340.245 632.904 340.437 632.285 340.437 631.432V630.152H346.581V638.472H315.924V633.8ZM359.312 633.736H361.04C361.978 633.736 362.618 633.565 362.96 633.224C363.344 632.84 363.536 632.242 363.536 631.432V601.864H357.648C356.794 601.864 356.176 602.056 355.792 602.44C355.408 602.781 355.216 603.357 355.216 604.168V606.216H350.16V597.128H383.632V606.216H378.576V604.168C378.576 603.314 378.384 602.717 378 602.376C377.658 602.034 377.04 601.864 376.144 601.864H370.32V631.432C370.32 632.242 370.49 632.84 370.832 633.224C371.216 633.565 371.877 633.736 372.816 633.736H374.544V638.472H359.312V633.736ZM387.237 633.8H389.093C389.946 633.8 390.544 633.608 390.885 633.224C391.269 632.84 391.461 632.221 391.461 631.368V604.104C391.461 603.293 391.269 602.717 390.885 602.376C390.544 601.992 389.946 601.8 389.093 601.8H387.237V597.064H402.405V601.8H400.549C399.738 601.8 399.141 601.992 398.757 602.376C398.416 602.717 398.245 603.293 398.245 604.104V631.432C398.245 632.285 398.416 632.904 398.757 633.288C399.141 633.629 399.738 633.8 400.549 633.8H402.405V638.472H387.237V633.8ZM431.05 647.752C427.978 647.752 425.567 646.962 423.818 645.384C422.111 643.805 421.066 641.778 420.682 639.304C415.263 638.834 411.189 636.744 408.458 633.032C405.727 629.277 404.362 624.242 404.362 617.928C404.362 611.058 405.898 605.725 408.97 601.928C412.085 598.088 416.885 596.168 423.37 596.168C429.813 596.168 434.57 598.088 437.642 601.928C440.757 605.725 442.314 611.058 442.314 617.928C442.314 624.2 440.949 629.213 438.218 632.968C435.53 636.68 431.498 638.792 426.122 639.304C426.335 640.669 426.847 641.629 427.658 642.184C428.511 642.738 429.663 643.016 431.114 643.016C432.181 643.016 433.034 642.909 433.674 642.696C434.314 642.525 434.89 642.205 435.402 641.736V640.008H440.65V643.784C438.73 646.429 435.53 647.752 431.05 647.752ZM423.37 634.696C431.562 634.696 435.658 629.106 435.658 617.928C435.658 606.578 431.562 600.904 423.37 600.904C415.135 600.904 411.018 606.578 411.018 617.928C411.018 629.106 415.135 634.696 423.37 634.696ZM463.933 639.432C458.685 639.432 454.738 638.301 452.093 636.04C449.447 633.778 448.125 630.706 448.125 626.824V603.976C448.125 603.165 447.933 602.589 447.549 602.248C447.207 601.864 446.61 601.672 445.757 601.672H444.285V597.064H458.429V601.672H457.213C456.402 601.672 455.805 601.864 455.421 602.248C455.079 602.632 454.909 603.25 454.909 604.104V627.208C454.909 629.768 455.655 631.666 457.149 632.904C458.685 634.141 460.946 634.76 463.933 634.76C469.949 634.76 472.957 632.242 472.957 627.208V604.104C472.957 603.25 472.765 602.632 472.381 602.248C472.039 601.864 471.442 601.672 470.589 601.672H469.373V597.064H483.645V601.672H482.109C481.298 601.672 480.701 601.864 480.317 602.248C479.933 602.589 479.741 603.165 479.741 603.976V626.824C479.741 630.706 478.418 633.778 475.773 636.04C473.127 638.301 469.181 639.432 463.933 639.432ZM487.237 633.8H489.093C489.946 633.8 490.544 633.608 490.885 633.224C491.269 632.84 491.461 632.221 491.461 631.368V604.104C491.461 603.293 491.269 602.717 490.885 602.376C490.544 601.992 489.946 601.8 489.093 601.8H487.237V597.064H517.893V605.32H511.749V604.04C511.749 603.229 511.557 602.653 511.173 602.312C510.789 601.928 510.17 601.736 509.317 601.736H498.245V615.368H509.317V620.104H498.245V633.8H509.317C510.17 633.8 510.789 633.629 511.173 633.288C511.557 632.904 511.749 632.285 511.749 631.432V630.152H517.893V638.472H487.237V633.8ZM544.487 633.8H546.471C547.452 633.8 548.199 633.629 548.711 633.288C549.266 632.946 549.692 632.349 549.991 631.496L562.215 597.064H568.679L580.775 631.496C581.074 632.349 581.5 632.946 582.055 633.288C582.61 633.629 583.378 633.8 584.359 633.8H586.279V638.472H571.687V633.8H574.887L572.071 625.608H558.759L555.943 633.8H559.143V638.472H544.487V633.8ZM570.791 621.576L565.479 605.96L560.039 621.576H570.791ZM604.683 639.432C599.435 639.432 595.488 638.301 592.843 636.04C590.197 633.778 588.875 630.706 588.875 626.824V603.976C588.875 603.165 588.683 602.589 588.299 602.248C587.957 601.864 587.36 601.672 586.507 601.672H585.035V597.064H599.179V601.672H597.963C597.152 601.672 596.555 601.864 596.171 602.248C595.829 602.632 595.659 603.25 595.659 604.104V627.208C595.659 629.768 596.405 631.666 597.899 632.904C599.435 634.141 601.696 634.76 604.683 634.76C610.699 634.76 613.707 632.242 613.707 627.208V604.104C613.707 603.25 613.515 602.632 613.131 602.248C612.789 601.864 612.192 601.672 611.339 601.672H610.123V597.064H624.395V601.672H622.859C622.048 601.672 621.451 601.864 621.067 602.248C620.683 602.589 620.491 603.165 620.491 603.976V626.824C620.491 630.706 619.168 633.778 616.523 636.04C613.877 638.301 609.931 639.432 604.683 639.432ZM636.499 633.736H638.227C639.166 633.736 639.806 633.565 640.147 633.224C640.531 632.84 640.723 632.242 640.723 631.432V601.864H634.835C633.982 601.864 633.363 602.056 632.979 602.44C632.595 602.781 632.403 603.357 632.403 604.168V606.216H627.347V597.128H660.819V606.216H655.763V604.168C655.763 603.314 655.571 602.717 655.187 602.376C654.846 602.034 654.227 601.864 653.331 601.864H647.507V631.432C647.507 632.242 647.678 632.84 648.019 633.224C648.403 633.565 649.064 633.736 650.003 633.736H651.731V638.472H636.499V633.736ZM681.183 639.432C674.74 639.432 669.961 637.661 666.847 634.12C663.732 630.536 662.174 625.138 662.174 617.928C662.174 610.632 663.689 605.17 666.719 601.544C669.791 597.917 674.612 596.104 681.183 596.104C687.711 596.104 692.489 597.917 695.519 601.544C698.591 605.17 700.127 610.632 700.127 617.928C700.127 625.138 698.569 630.536 695.455 634.12C692.34 637.661 687.583 639.432 681.183 639.432ZM681.183 634.696C685.364 634.696 688.457 633.394 690.463 630.792C692.468 628.189 693.471 623.901 693.471 617.928C693.471 611.826 692.468 607.453 690.463 604.808C688.5 602.162 685.407 600.84 681.183 600.84C676.916 600.84 673.78 602.162 671.775 604.808C669.812 607.453 668.831 611.826 668.831 617.928C668.831 623.901 669.833 628.189 671.839 630.792C673.844 633.394 676.959 634.696 681.183 634.696ZM701.799 633.8H703.656C704.509 633.8 705.106 633.608 705.448 633.224C705.832 632.84 706.024 632.221 706.024 631.368V604.168C706.024 603.314 705.832 602.696 705.448 602.312C705.106 601.928 704.509 601.736 703.656 601.736H701.799V597.064H713.256L724.52 623.112L735.72 597.064H747.176V601.736H745.256C744.445 601.736 743.848 601.928 743.464 602.312C743.122 602.696 742.952 603.314 742.952 604.168V631.368C742.952 632.221 743.122 632.84 743.464 633.224C743.848 633.608 744.445 633.8 745.256 633.8H747.176V638.472H732.007V633.8H733.928C734.738 633.8 735.314 633.629 735.656 633.288C736.04 632.904 736.232 632.285 736.232 631.432V608.264L727.08 629.576H721.896L712.68 608.264V631.432C712.68 632.242 712.872 632.84 713.256 633.224C713.64 633.608 714.237 633.8 715.048 633.8H716.968V638.472H701.799V633.8ZM767.87 639.432C761.427 639.432 756.649 637.661 753.534 634.12C750.419 630.536 748.862 625.138 748.862 617.928C748.862 610.632 750.377 605.17 753.406 601.544C756.478 597.917 761.299 596.104 767.87 596.104C774.398 596.104 779.177 597.917 782.206 601.544C785.278 605.17 786.814 610.632 786.814 617.928C786.814 625.138 785.257 630.536 782.142 634.12C779.027 637.661 774.27 639.432 767.87 639.432ZM767.87 634.696C772.051 634.696 775.145 633.394 777.15 630.792C779.155 628.189 780.158 623.901 780.158 617.928C780.158 611.826 779.155 607.453 777.15 604.808C775.187 602.162 772.094 600.84 767.87 600.84C763.603 600.84 760.467 602.162 758.462 604.808C756.499 607.453 755.518 611.826 755.518 617.928C755.518 623.901 756.521 628.189 758.526 630.792C760.531 633.394 763.646 634.696 767.87 634.696ZM797.312 633.736H799.04C799.978 633.736 800.618 633.565 800.96 633.224C801.344 632.84 801.536 632.242 801.536 631.432V601.864H795.648C794.794 601.864 794.176 602.056 793.792 602.44C793.408 602.781 793.216 603.357 793.216 604.168V606.216H788.16V597.128H821.632V606.216H816.576V604.168C816.576 603.314 816.384 602.717 816 602.376C815.658 602.034 815.04 601.864 814.144 601.864H808.32V631.432C808.32 632.242 808.49 632.84 808.832 633.224C809.216 633.565 809.877 633.736 810.816 633.736H812.544V638.472H797.312V633.736ZM825.237 633.8H827.093C827.946 633.8 828.544 633.608 828.885 633.224C829.269 632.84 829.461 632.221 829.461 631.368V604.104C829.461 603.293 829.269 602.717 828.885 602.376C828.544 601.992 827.946 601.8 827.093 601.8H825.237V597.064H840.405V601.8H838.549C837.738 601.8 837.141 601.992 836.757 602.376C836.416 602.717 836.245 603.293 836.245 604.104V631.432C836.245 632.285 836.416 632.904 836.757 633.288C837.141 633.629 837.738 633.8 838.549 633.8H840.405V638.472H825.237V633.8ZM849.86 604.296C849.476 603.229 849.028 602.525 848.516 602.184C848.004 601.842 847.151 601.672 845.956 601.672H844.612V597.064H854.468L865.156 629.576L875.716 597.064H885.636V601.672H884.292C883.097 601.672 882.244 601.842 881.732 602.184C881.22 602.525 880.772 603.229 880.388 604.296L868.42 638.472H861.956L849.86 604.296ZM888.924 633.8H890.781C891.634 633.8 892.231 633.608 892.573 633.224C892.957 632.84 893.149 632.221 893.149 631.368V604.104C893.149 603.293 892.957 602.717 892.573 602.376C892.231 601.992 891.634 601.8 890.781 601.8H888.924V597.064H919.581V605.32H913.437V604.04C913.437 603.229 913.245 602.653 912.861 602.312C912.477 601.928 911.858 601.736 911.005 601.736H899.933V615.368H911.005V620.104H899.933V633.8H911.005C911.858 633.8 912.477 633.629 912.861 633.288C913.245 632.904 913.437 632.285 913.437 631.432V630.152H919.581V638.472H888.924V633.8Z" fill="black" fill-opacity="0.85"/>
<defs>
<filter id="filter0_d_2_19" x="0" y="185.519" width="1088" height="627.893" filterUnits="userSpaceOnUse" color-interpolation-filters="sRGB">
<feFlood flood-opacity="0" result="BackgroundImageFix"/>
<feColorMatrix in="SourceAlpha" type="matrix" values="0 0 0 0 0 0 0 0 0 0 0 0 0 0 0 0 0 0 127 0" result="hardAlpha"/>
<feOffset dy="4"/>
<feGaussianBlur stdDeviation="2"/>
<feColorMatrix type="matrix" values="0 0 0 0 0 0 0 0 0 0 0 0 0 0 0 0 0 0 0.25 0"/>
<feBlend mode="normal" in2="BackgroundImageFix" result="effect1_dropShadow_2_19"/>
<feBlend mode="normal" in="SourceGraphic" in2="effect1_dropShadow_2_19" result="shape"/>
</filter>
<filter id="filter1_d_2_19" x="137.653" y="103.728" width="121.668" height="103.397" filterUnits="userSpaceOnUse" color-interpolation-filters="sRGB">
<feFlood flood-opacity="0" result="BackgroundImageFix"/>
<feColorMatrix in="SourceAlpha" type="matrix" values="0 0 0 0 0 0 0 0 0 0 0 0 0 0 0 0 0 0 127 0" result="hardAlpha"/>
<feOffset dy="4"/>
<feGaussianBlur stdDeviation="2"/>
<feColorMatrix type="matrix" values="0 0 0 0 0 0 0 0 0 0 0 0 0 0 0 0 0 0 0.25 0"/>
<feBlend mode="normal" in2="BackgroundImageFix" result="effect1_dropShadow_2_19"/>
<feBlend mode="normal" in="SourceGraphic" in2="effect1_dropShadow_2_19" result="shape"/>
</filter>
<filter id="filter2_d_2_19" x="830.852" y="103.728" width="121.667" height="103.397" filterUnits="userSpaceOnUse" color-interpolation-filters="sRGB">
<feFlood flood-opacity="0" result="BackgroundImageFix"/>
<feColorMatrix in="SourceAlpha" type="matrix" values="0 0 0 0 0 0 0 0 0 0 0 0 0 0 0 0 0 0 127 0" result="hardAlpha"/>
<feOffset dy="4"/>
<feGaussianBlur stdDeviation="2"/>
<feColorMatrix type="matrix" values="0 0 0 0 0 0 0 0 0 0 0 0 0 0 0 0 0 0 0.25 0"/>
<feBlend mode="normal" in2="BackgroundImageFix" result="effect1_dropShadow_2_19"/>
<feBlend mode="normal" in="SourceGraphic" in2="effect1_dropShadow_2_19" result="shape"/>
</filter>
<filter id="filter3_d_2_19" x="277.259" y="34.8507" width="142.334" height="134.547" filterUnits="userSpaceOnUse" color-interpolation-filters="sRGB">
<feFlood flood-opacity="0" result="BackgroundImageFix"/>
<feColorMatrix in="SourceAlpha" type="matrix" values="0 0 0 0 0 0 0 0 0 0 0 0 0 0 0 0 0 0 127 0" result="hardAlpha"/>
<feOffset dy="4"/>
<feGaussianBlur stdDeviation="2"/>
<feColorMatrix type="matrix" values="0 0 0 0 0 0 0 0 0 0 0 0 0 0 0 0 0 0 0.25 0"/>
<feBlend mode="normal" in2="BackgroundImageFix" result="effect1_dropShadow_2_19"/>
<feBlend mode="normal" in="SourceGraphic" in2="effect1_dropShadow_2_19" result="shape"/>
</filter>
<filter id="filter4_d_2_19" x="648.849" y="34.8507" width="142.334" height="134.547" filterUnits="userSpaceOnUse" color-interpolation-filters="sRGB">
<feFlood flood-opacity="0" result="BackgroundImageFix"/>
<feColorMatrix in="SourceAlpha" type="matrix" values="0 0 0 0 0 0 0 0 0 0 0 0 0 0 0 0 0 0 127 0" result="hardAlpha"/>
<feOffset dy="4"/>
<feGaussianBlur stdDeviation="2"/>
<feColorMatrix type="matrix" values="0 0 0 0 0 0 0 0 0 0 0 0 0 0 0 0 0 0 0.25 0"/>
<feBlend mode="normal" in2="BackgroundImageFix" result="effect1_dropShadow_2_19"/>
<feBlend mode="normal" in="SourceGraphic" in2="effect1_dropShadow_2_19" result="shape"/>
</filter>
<filter id="filter5_d_2_19" x="451.687" y="0.411987" width="165.068" height="155.962" filterUnits="userSpaceOnUse" color-interpolation-filters="sRGB">
<feFlood flood-opacity="0" result="BackgroundImageFix"/>
<feColorMatrix in="SourceAlpha" type="matrix" values="0 0 0 0 0 0 0 0 0 0 0 0 0 0 0 0 0 0 127 0" result="hardAlpha"/>
<feOffset dy="4"/>
<feGaussianBlur stdDeviation="2"/>
<feColorMatrix type="matrix" values="0 0 0 0 0 0 0 0 0 0 0 0 0 0 0 0 0 0 0.25 0"/>
<feBlend mode="normal" in2="BackgroundImageFix" result="effect1_dropShadow_2_19"/>
<feBlend mode="normal" in="SourceGraphic" in2="effect1_dropShadow_2_19" result="shape"/>
</filter>
<radialGradient id="paint0_radial_2_19" cx="0" cy="0" r="1" gradientUnits="userSpaceOnUse" gradientTransform="translate(555.952 484.703) rotate(1.16757) scale(528.158 902.793)">
<stop stop-color="#FFC804"/>
<stop offset="0.71308" stop-color="#FFC804" stop-opacity="0.939566"/>
<stop offset="1" stop-color="#FFC804" stop-opacity="0.427083"/>
<stop offset="1" stop-color="#FFC804" stop-opacity="0"/>
<stop offset="1" stop-color="#FFC804" stop-opacity="0.504439"/>
</radialGradient>
</defs>
</svg>
