<?xml version="1.0" standalone="no"?><svg xmlns="http://www.w3.org/2000/svg" viewBox="0 0 1440 320"><path fill="#FFC804" fill-opacity="1" d="M0,64L6.2,64C12.3,64,25,64,37,101.3C49.2,139,62,213,74,224C86.2,235,98,181,111,133.3C123.1,85,135,43,148,58.7C160,75,172,149,185,186.7C196.9,224,209,224,222,208C233.8,192,246,160,258,176C270.8,192,283,256,295,277.3C307.7,299,320,277,332,224C344.6,171,357,85,369,69.3C381.5,53,394,107,406,128C418.5,149,431,139,443,128C455.4,117,468,107,480,117.3C492.3,128,505,160,517,160C529.2,160,542,128,554,112C566.2,96,578,96,591,106.7C603.1,117,615,139,628,128C640,117,652,75,665,90.7C676.9,107,689,181,702,186.7C713.8,192,726,128,738,106.7C750.8,85,763,107,775,96C787.7,85,800,43,812,26.7C824.6,11,837,21,849,64C861.5,107,874,181,886,186.7C898.5,192,911,128,923,138.7C935.4,149,948,235,960,250.7C972.3,267,985,213,997,170.7C1009.2,128,1022,96,1034,74.7C1046.2,53,1058,43,1071,74.7C1083.1,107,1095,181,1108,213.3C1120,245,1132,235,1145,213.3C1156.9,192,1169,160,1182,176C1193.8,192,1206,256,1218,245.3C1230.8,235,1243,149,1255,106.7C1267.7,64,1280,64,1292,85.3C1304.6,107,1317,149,1329,186.7C1341.5,224,1354,256,1366,240C1378.5,224,1391,160,1403,154.7C1415.4,149,1428,203,1434,229.3L1440,256L1440,0L1433.8,0C1427.7,0,1415,0,1403,0C1390.8,0,1378,0,1366,0C1353.8,0,1342,0,1329,0C1316.9,0,1305,0,1292,0C1280,0,1268,0,1255,0C1243.1,0,1231,0,1218,0C1206.2,0,1194,0,1182,0C1169.2,0,1157,0,1145,0C1132.3,0,1120,0,1108,0C1095.4,0,1083,0,1071,0C1058.5,0,1046,0,1034,0C1021.5,0,1009,0,997,0C984.6,0,972,0,960,0C947.7,0,935,0,923,0C910.8,0,898,0,886,0C873.8,0,862,0,849,0C836.9,0,825,0,812,0C800,0,788,0,775,0C763.1,0,751,0,738,0C726.2,0,714,0,702,0C689.2,0,677,0,665,0C652.3,0,640,0,628,0C615.4,0,603,0,591,0C578.5,0,566,0,554,0C541.5,0,529,0,517,0C504.6,0,492,0,480,0C467.7,0,455,0,443,0C430.8,0,418,0,406,0C393.8,0,382,0,369,0C356.9,0,345,0,332,0C320,0,308,0,295,0C283.1,0,271,0,258,0C246.2,0,234,0,222,0C209.2,0,197,0,185,0C172.3,0,160,0,148,0C135.4,0,123,0,111,0C98.5,0,86,0,74,0C61.5,0,49,0,37,0C24.6,0,12,0,6,0L0,0Z"></path></svg>