<svg width="508" height="382" viewBox="0 0 508 382" fill="none" xmlns="http://www.w3.org/2000/svg">
<g filter="url(#filter0_d_2_19)">
<ellipse cx="254" cy="230" rx="250" ry="144" fill="url(#paint0_radial_2_19)"/>
</g>
<g filter="url(#filter1_d_2_19)">
<path d="M94.0402 48L100.252 64.9291L120.352 64.9291L104.09 75.3918L110.302 92.3209L94.0402 81.8582L77.7786 92.3209L83.99 75.3918L67.7283 64.9291L87.8288 64.9291L94.0402 48Z" fill="#FFC804"/>
</g>
<g filter="url(#filter2_d_2_19)">
<path d="M414.966 48L421.177 64.9291L441.278 64.9291L425.016 75.3918L431.227 92.3209L414.966 81.8582L398.704 92.3209L404.916 75.3918L388.654 64.9291L408.754 64.9291L414.966 48Z" fill="#FFC804"/>
</g>
<g filter="url(#filter3_d_2_19)">
<path d="M163.457 16L170.797 38.4569H194.553L175.334 52.3361L182.675 74.7931L163.457 60.9139L144.238 74.7931L151.579 52.3361L132.361 38.4569H156.116L163.457 16Z" fill="#FFC804"/>
</g>
<g filter="url(#filter4_d_2_19)">
<path d="M335.489 16L342.83 38.4569H366.585L347.366 52.3361L354.707 74.7931L335.489 60.9139L316.271 74.7931L323.611 52.3361L304.393 38.4569H328.148L335.489 16Z" fill="#FFC804"/>
</g>
<g filter="url(#filter5_d_2_19)">
<path d="M249.473 0L258.056 26.2574H285.831L263.36 42.4853L271.944 68.7426L249.473 52.5147L227.002 68.7426L235.585 42.4853L213.115 26.2574H240.89L249.473 0Z" fill="#FFC804"/>
</g>
<path d="M134.154 170.104C133.29 167.704 132.282 166.12 131.13 165.352C129.978 164.584 128.058 164.2 125.37 164.2H122.346V153.832H144.522L168.57 226.984L192.33 153.832H214.65V164.2H211.626C208.938 164.2 207.018 164.584 205.866 165.352C204.714 166.12 203.706 167.704 202.842 170.104L175.914 247H161.37L134.154 170.104ZM211.958 234.328H225.35V247H211.958V234.328ZM236.252 236.488H240.428C242.348 236.488 243.692 236.056 244.46 235.192C245.324 234.328 245.756 232.936 245.756 231.016V169.672C245.756 167.848 245.324 166.552 244.46 165.784C243.692 164.92 242.348 164.488 240.428 164.488H236.252V153.832H270.38V164.488H266.204C264.38 164.488 263.036 164.92 262.172 165.784C261.404 166.552 261.02 167.848 261.02 169.672V231.16C261.02 233.08 261.404 234.472 262.172 235.336C263.036 236.104 264.38 236.488 266.204 236.488H270.38V247H236.252V236.488ZM281.286 234.328H294.678V247H281.286V234.328ZM305.58 236.488H309.468C311.58 236.488 313.02 236.056 313.788 235.192C314.652 234.328 315.084 232.984 315.084 231.16V169.672C315.084 167.848 314.652 166.552 313.788 165.784C313.02 164.92 311.58 164.488 309.468 164.488H305.58V153.832H354.972C364.572 153.832 372.06 156.328 377.436 161.32C382.908 166.216 385.644 173.272 385.644 182.488C385.644 191.704 382.86 199 377.292 204.376C371.82 209.656 364.332 212.296 354.828 212.296H330.348V231.16C330.348 232.984 330.732 234.328 331.5 235.192C332.364 236.056 333.852 236.488 335.964 236.488H339.708V247H305.58V236.488ZM352.812 201.64C358.86 201.64 363.324 200.104 366.204 197.032C369.18 193.864 370.668 189.016 370.668 182.488C370.668 175.864 369.276 171.208 366.492 168.52C363.708 165.832 359.148 164.488 352.812 164.488H330.348V201.64H352.812Z" fill="#0F0F0F" fill-opacity="0.85"/>
<path d="M89.6857 304.956H90.4977C90.8711 304.956 91.1324 304.872 91.2817 304.704C91.4497 304.536 91.5337 304.265 91.5337 303.892V291.964C91.5337 291.609 91.4497 291.357 91.2817 291.208C91.1324 291.04 90.8711 290.956 90.4977 290.956H89.6857V288.884H103.098V292.496H100.41V291.936C100.41 291.581 100.326 291.329 100.158 291.18C99.9897 291.012 99.7191 290.928 99.3457 290.928H94.5017V296.892H99.3457V298.964H94.5017V304.956H99.3457C99.7191 304.956 99.9897 304.881 100.158 304.732C100.326 304.564 100.41 304.293 100.41 303.92V303.36H103.098V307H89.6857V304.956ZM111.692 307.42C110.385 307.42 109.144 307.233 107.968 306.86C106.792 306.487 105.784 305.983 104.944 305.348V302.604H107.94V304.424C108.406 304.704 108.976 304.928 109.648 305.096C110.338 305.264 111.038 305.348 111.748 305.348C112.868 305.348 113.717 305.115 114.296 304.648C114.874 304.163 115.164 303.481 115.164 302.604C115.164 301.988 115.005 301.475 114.688 301.064C114.389 300.653 113.96 300.299 113.4 300C112.84 299.701 112.065 299.356 111.076 298.964C109.694 298.423 108.584 297.909 107.744 297.424C106.904 296.939 106.25 296.369 105.784 295.716C105.336 295.044 105.112 294.232 105.112 293.28C105.112 291.693 105.718 290.499 106.932 289.696C108.145 288.875 109.704 288.464 111.608 288.464C112.858 288.464 113.997 288.641 115.024 288.996C116.069 289.351 116.965 289.817 117.712 290.396V293H114.716V291.264C113.894 290.779 112.812 290.536 111.468 290.536C110.385 290.536 109.536 290.751 108.92 291.18C108.304 291.609 107.996 292.281 107.996 293.196C107.996 293.831 108.192 294.363 108.584 294.792C108.976 295.221 109.424 295.557 109.928 295.8C110.432 296.043 111.216 296.379 112.28 296.808C113.698 297.368 114.79 297.863 115.556 298.292C116.321 298.721 116.928 299.272 117.376 299.944C117.824 300.597 118.048 301.447 118.048 302.492C118.048 303.444 117.796 304.293 117.292 305.04C116.806 305.768 116.088 306.347 115.136 306.776C114.184 307.205 113.036 307.42 111.692 307.42ZM122.914 304.928H123.67C124.08 304.928 124.36 304.853 124.51 304.704C124.678 304.536 124.762 304.275 124.762 303.92V290.984H122.186C121.812 290.984 121.542 291.068 121.374 291.236C121.206 291.385 121.122 291.637 121.122 291.992V292.888H118.91V288.912H133.554V292.888H131.342V291.992C131.342 291.619 131.258 291.357 131.09 291.208C130.94 291.059 130.67 290.984 130.278 290.984H127.73V303.92C127.73 304.275 127.804 304.536 127.954 304.704C128.122 304.853 128.411 304.928 128.822 304.928H129.578V307H122.914V304.928ZM135.131 304.956H135.943C136.316 304.956 136.578 304.872 136.727 304.704C136.895 304.536 136.979 304.265 136.979 303.892V291.964C136.979 291.609 136.895 291.357 136.727 291.208C136.578 291.04 136.316 290.956 135.943 290.956H135.131V288.884H141.655V290.956H140.955C140.6 290.956 140.339 291.04 140.171 291.208C140.022 291.357 139.947 291.609 139.947 291.964V296.892H147.563V291.992C147.563 291.619 147.488 291.357 147.339 291.208C147.19 291.04 146.928 290.956 146.555 290.956H145.827V288.884H152.379V290.956H151.567C151.194 290.956 150.923 291.04 150.755 291.208C150.606 291.357 150.531 291.609 150.531 291.964V303.892C150.531 304.265 150.606 304.536 150.755 304.704C150.923 304.872 151.194 304.956 151.567 304.956H152.379V307H145.827V304.956H146.555C146.91 304.956 147.162 304.872 147.311 304.704C147.479 304.536 147.563 304.265 147.563 303.892V298.936H139.947V303.892C139.947 304.265 140.022 304.536 140.171 304.704C140.339 304.872 140.6 304.956 140.955 304.956H141.655V307H135.131V304.956ZM161.273 282.36H164.773L161.581 287.372H159.033L161.273 282.36ZM154.217 304.956H155.029C155.402 304.956 155.664 304.872 155.813 304.704C155.981 304.536 156.065 304.265 156.065 303.892V291.964C156.065 291.609 155.981 291.357 155.813 291.208C155.664 291.04 155.402 290.956 155.029 290.956H154.217V288.884H167.629V292.496H164.941V291.936C164.941 291.581 164.857 291.329 164.689 291.18C164.521 291.012 164.25 290.928 163.877 290.928H159.033V296.892H163.877V298.964H159.033V304.956H163.877C164.25 304.956 164.521 304.881 164.689 304.732C164.857 304.564 164.941 304.293 164.941 303.92V303.36H167.629V307H154.217V304.956ZM173.199 304.928H173.955C174.365 304.928 174.645 304.853 174.795 304.704C174.963 304.536 175.047 304.275 175.047 303.92V290.984H172.471C172.097 290.984 171.827 291.068 171.659 291.236C171.491 291.385 171.407 291.637 171.407 291.992V292.888H169.195V288.912H183.839V292.888H181.627V291.992C181.627 291.619 181.543 291.357 181.375 291.208C181.225 291.059 180.955 290.984 180.563 290.984H178.015V303.92C178.015 304.275 178.089 304.536 178.239 304.704C178.407 304.853 178.696 304.928 179.107 304.928H179.863V307H173.199V304.928ZM185.416 304.956H186.228C186.602 304.956 186.863 304.872 187.012 304.704C187.18 304.536 187.264 304.265 187.264 303.892V291.964C187.264 291.609 187.18 291.357 187.012 291.208C186.863 291.04 186.602 290.956 186.228 290.956H185.416V288.884H192.052V290.956H191.24C190.886 290.956 190.624 291.04 190.456 291.208C190.307 291.357 190.232 291.609 190.232 291.964V303.92C190.232 304.293 190.307 304.564 190.456 304.732C190.624 304.881 190.886 304.956 191.24 304.956H192.052V307H185.416V304.956ZM204.584 311.06C203.24 311.06 202.186 310.715 201.42 310.024C200.674 309.333 200.216 308.447 200.048 307.364C197.678 307.159 195.895 306.244 194.7 304.62C193.506 302.977 192.908 300.775 192.908 298.012C192.908 295.007 193.58 292.673 194.924 291.012C196.287 289.332 198.387 288.492 201.224 288.492C204.043 288.492 206.124 289.332 207.468 291.012C208.831 292.673 209.512 295.007 209.512 298.012C209.512 300.756 208.915 302.949 207.72 304.592C206.544 306.216 204.78 307.14 202.428 307.364C202.522 307.961 202.746 308.381 203.1 308.624C203.474 308.867 203.978 308.988 204.612 308.988C205.079 308.988 205.452 308.941 205.732 308.848C206.012 308.773 206.264 308.633 206.488 308.428V307.672H208.784V309.324C207.944 310.481 206.544 311.06 204.584 311.06ZM201.224 305.348C204.808 305.348 206.6 302.903 206.6 298.012C206.6 293.047 204.808 290.564 201.224 290.564C197.622 290.564 195.82 293.047 195.82 298.012C195.82 302.903 197.622 305.348 201.224 305.348ZM218.97 307.42C216.674 307.42 214.948 306.925 213.79 305.936C212.633 304.947 212.054 303.603 212.054 301.904V291.908C212.054 291.553 211.97 291.301 211.802 291.152C211.653 290.984 211.392 290.9 211.018 290.9H210.374V288.884H216.562V290.9H216.03C215.676 290.9 215.414 290.984 215.246 291.152C215.097 291.32 215.022 291.591 215.022 291.964V302.072C215.022 303.192 215.349 304.023 216.002 304.564C216.674 305.105 217.664 305.376 218.97 305.376C221.602 305.376 222.918 304.275 222.918 302.072V291.964C222.918 291.591 222.834 291.32 222.666 291.152C222.517 290.984 222.256 290.9 221.882 290.9H221.35V288.884H227.594V290.9H226.922C226.568 290.9 226.306 290.984 226.138 291.152C225.97 291.301 225.886 291.553 225.886 291.908V301.904C225.886 303.603 225.308 304.947 224.15 305.936C222.993 306.925 221.266 307.42 218.97 307.42ZM229.166 304.956H229.978C230.352 304.956 230.613 304.872 230.762 304.704C230.93 304.536 231.014 304.265 231.014 303.892V291.964C231.014 291.609 230.93 291.357 230.762 291.208C230.613 291.04 230.352 290.956 229.978 290.956H229.166V288.884H242.578V292.496H239.89V291.936C239.89 291.581 239.806 291.329 239.638 291.18C239.47 291.012 239.2 290.928 238.826 290.928H233.982V296.892H238.826V298.964H233.982V304.956H238.826C239.2 304.956 239.47 304.881 239.638 304.732C239.806 304.564 239.89 304.293 239.89 303.92V303.36H242.578V307H229.166V304.956ZM254.213 304.956H255.081C255.51 304.956 255.837 304.881 256.061 304.732C256.304 304.583 256.49 304.321 256.621 303.948L261.969 288.884H264.797L270.089 303.948C270.22 304.321 270.406 304.583 270.649 304.732C270.892 304.881 271.228 304.956 271.657 304.956H272.497V307H266.113V304.956H267.513L266.281 301.372H260.457L259.225 304.956H260.625V307H254.213V304.956ZM265.721 299.608L263.397 292.776L261.017 299.608H265.721ZM280.549 307.42C278.253 307.42 276.526 306.925 275.369 305.936C274.211 304.947 273.633 303.603 273.633 301.904V291.908C273.633 291.553 273.549 291.301 273.381 291.152C273.231 290.984 272.97 290.9 272.597 290.9H271.953V288.884H278.141V290.9H277.609C277.254 290.9 276.993 290.984 276.825 291.152C276.675 291.32 276.601 291.591 276.601 291.964V302.072C276.601 303.192 276.927 304.023 277.581 304.564C278.253 305.105 279.242 305.376 280.549 305.376C283.181 305.376 284.497 304.275 284.497 302.072V291.964C284.497 291.591 284.413 291.32 284.245 291.152C284.095 290.984 283.834 290.9 283.461 290.9H282.929V288.884H289.173V290.9H288.501C288.146 290.9 287.885 290.984 287.717 291.152C287.549 291.301 287.465 291.553 287.465 291.908V301.904C287.465 303.603 286.886 304.947 285.729 305.936C284.571 306.925 282.845 307.42 280.549 307.42ZM294.468 304.928H295.224C295.635 304.928 295.915 304.853 296.064 304.704C296.232 304.536 296.316 304.275 296.316 303.92V290.984H293.74C293.367 290.984 293.096 291.068 292.928 291.236C292.76 291.385 292.676 291.637 292.676 291.992V292.888H290.464V288.912H305.108V292.888H302.896V291.992C302.896 291.619 302.812 291.357 302.644 291.208C302.495 291.059 302.224 290.984 301.832 290.984H299.284V303.92C299.284 304.275 299.359 304.536 299.508 304.704C299.676 304.853 299.966 304.928 300.376 304.928H301.132V307H294.468V304.928ZM314.017 307.42C311.199 307.42 309.108 306.645 307.745 305.096C306.383 303.528 305.701 301.167 305.701 298.012C305.701 294.82 306.364 292.431 307.689 290.844C309.033 289.257 311.143 288.464 314.017 288.464C316.873 288.464 318.964 289.257 320.289 290.844C321.633 292.431 322.305 294.82 322.305 298.012C322.305 301.167 321.624 303.528 320.261 305.096C318.899 306.645 316.817 307.42 314.017 307.42ZM314.017 305.348C315.847 305.348 317.2 304.779 318.077 303.64C318.955 302.501 319.393 300.625 319.393 298.012C319.393 295.343 318.955 293.429 318.077 292.272C317.219 291.115 315.865 290.536 314.017 290.536C312.151 290.536 310.779 291.115 309.901 292.272C309.043 293.429 308.613 295.343 308.613 298.012C308.613 300.625 309.052 302.501 309.929 303.64C310.807 304.779 312.169 305.348 314.017 305.348ZM323.037 304.956H323.849C324.223 304.956 324.484 304.872 324.633 304.704C324.801 304.536 324.885 304.265 324.885 303.892V291.992C324.885 291.619 324.801 291.348 324.633 291.18C324.484 291.012 324.223 290.928 323.849 290.928H323.037V288.884H328.049L332.977 300.28L337.877 288.884H342.889V290.928H342.049C341.695 290.928 341.433 291.012 341.265 291.18C341.116 291.348 341.041 291.619 341.041 291.992V303.892C341.041 304.265 341.116 304.536 341.265 304.704C341.433 304.872 341.695 304.956 342.049 304.956H342.889V307H336.253V304.956H337.093C337.448 304.956 337.7 304.881 337.849 304.732C338.017 304.564 338.101 304.293 338.101 303.92V293.784L334.097 303.108H331.829L327.797 293.784V303.92C327.797 304.275 327.881 304.536 328.049 304.704C328.217 304.872 328.479 304.956 328.833 304.956H329.673V307H323.037V304.956ZM351.943 307.42C349.124 307.42 347.034 306.645 345.671 305.096C344.308 303.528 343.627 301.167 343.627 298.012C343.627 294.82 344.29 292.431 345.615 290.844C346.959 289.257 349.068 288.464 351.943 288.464C354.799 288.464 356.89 289.257 358.215 290.844C359.559 292.431 360.231 294.82 360.231 298.012C360.231 301.167 359.55 303.528 358.187 305.096C356.824 306.645 354.743 307.42 351.943 307.42ZM351.943 305.348C353.772 305.348 355.126 304.779 356.003 303.64C356.88 302.501 357.319 300.625 357.319 298.012C357.319 295.343 356.88 293.429 356.003 292.272C355.144 291.115 353.791 290.536 351.943 290.536C350.076 290.536 348.704 291.115 347.827 292.272C346.968 293.429 346.539 295.343 346.539 298.012C346.539 300.625 346.978 302.501 347.855 303.64C348.732 304.779 350.095 305.348 351.943 305.348ZM364.824 304.928H365.58C365.99 304.928 366.27 304.853 366.42 304.704C366.588 304.536 366.672 304.275 366.672 303.92V290.984H364.096C363.722 290.984 363.452 291.068 363.284 291.236C363.116 291.385 363.032 291.637 363.032 291.992V292.888H360.82V288.912H375.464V292.888H373.252V291.992C373.252 291.619 373.168 291.357 373 291.208C372.85 291.059 372.58 290.984 372.188 290.984H369.64V303.92C369.64 304.275 369.714 304.536 369.864 304.704C370.032 304.853 370.321 304.928 370.732 304.928H371.488V307H364.824V304.928ZM377.041 304.956H377.853C378.227 304.956 378.488 304.872 378.637 304.704C378.805 304.536 378.889 304.265 378.889 303.892V291.964C378.889 291.609 378.805 291.357 378.637 291.208C378.488 291.04 378.227 290.956 377.853 290.956H377.041V288.884H383.677V290.956H382.865C382.511 290.956 382.249 291.04 382.081 291.208C381.932 291.357 381.857 291.609 381.857 291.964V303.92C381.857 304.293 381.932 304.564 382.081 304.732C382.249 304.881 382.511 304.956 382.865 304.956H383.677V307H377.041V304.956ZM387.814 292.048C387.646 291.581 387.45 291.273 387.226 291.124C387.002 290.975 386.628 290.9 386.106 290.9H385.518V288.884H389.83L394.506 303.108L399.126 288.884H403.466V290.9H402.878C402.355 290.9 401.982 290.975 401.758 291.124C401.534 291.273 401.338 291.581 401.17 292.048L395.934 307H393.106L387.814 292.048ZM404.904 304.956H405.716C406.09 304.956 406.351 304.872 406.5 304.704C406.668 304.536 406.752 304.265 406.752 303.892V291.964C406.752 291.609 406.668 291.357 406.5 291.208C406.351 291.04 406.09 290.956 405.716 290.956H404.904V288.884H418.316V292.496H415.628V291.936C415.628 291.581 415.544 291.329 415.376 291.18C415.208 291.012 414.938 290.928 414.564 290.928H409.72V296.892H414.564V298.964H409.72V304.956H414.564C414.938 304.956 415.208 304.881 415.376 304.732C415.544 304.564 415.628 304.293 415.628 303.92V303.36H418.316V307H404.904V304.956Z" fill="black" fill-opacity="0.85"/>
<defs>
<filter id="filter0_d_2_19" x="0" y="86" width="508" height="296" filterUnits="userSpaceOnUse" color-interpolation-filters="sRGB">
<feFlood flood-opacity="0" result="BackgroundImageFix"/>
<feColorMatrix in="SourceAlpha" type="matrix" values="0 0 0 0 0 0 0 0 0 0 0 0 0 0 0 0 0 0 127 0" result="hardAlpha"/>
<feOffset dy="4"/>
<feGaussianBlur stdDeviation="2"/>
<feColorMatrix type="matrix" values="0 0 0 0 0 0 0 0 0 0 0 0 0 0 0 0 0 0 0.25 0"/>
<feBlend mode="normal" in2="BackgroundImageFix" result="effect1_dropShadow_2_19"/>
<feBlend mode="normal" in="SourceGraphic" in2="effect1_dropShadow_2_19" result="shape"/>
</filter>
<filter id="filter1_d_2_19" x="63.7283" y="48" width="60.6239" height="52.3209" filterUnits="userSpaceOnUse" color-interpolation-filters="sRGB">
<feFlood flood-opacity="0" result="BackgroundImageFix"/>
<feColorMatrix in="SourceAlpha" type="matrix" values="0 0 0 0 0 0 0 0 0 0 0 0 0 0 0 0 0 0 127 0" result="hardAlpha"/>
<feOffset dy="4"/>
<feGaussianBlur stdDeviation="2"/>
<feColorMatrix type="matrix" values="0 0 0 0 0 0 0 0 0 0 0 0 0 0 0 0 0 0 0.25 0"/>
<feBlend mode="normal" in2="BackgroundImageFix" result="effect1_dropShadow_2_19"/>
<feBlend mode="normal" in="SourceGraphic" in2="effect1_dropShadow_2_19" result="shape"/>
</filter>
<filter id="filter2_d_2_19" x="384.654" y="48" width="60.6238" height="52.3209" filterUnits="userSpaceOnUse" color-interpolation-filters="sRGB">
<feFlood flood-opacity="0" result="BackgroundImageFix"/>
<feColorMatrix in="SourceAlpha" type="matrix" values="0 0 0 0 0 0 0 0 0 0 0 0 0 0 0 0 0 0 127 0" result="hardAlpha"/>
<feOffset dy="4"/>
<feGaussianBlur stdDeviation="2"/>
<feColorMatrix type="matrix" values="0 0 0 0 0 0 0 0 0 0 0 0 0 0 0 0 0 0 0.25 0"/>
<feBlend mode="normal" in2="BackgroundImageFix" result="effect1_dropShadow_2_19"/>
<feBlend mode="normal" in="SourceGraphic" in2="effect1_dropShadow_2_19" result="shape"/>
</filter>
<filter id="filter3_d_2_19" x="128.361" y="16" width="70.1918" height="66.793" filterUnits="userSpaceOnUse" color-interpolation-filters="sRGB">
<feFlood flood-opacity="0" result="BackgroundImageFix"/>
<feColorMatrix in="SourceAlpha" type="matrix" values="0 0 0 0 0 0 0 0 0 0 0 0 0 0 0 0 0 0 127 0" result="hardAlpha"/>
<feOffset dy="4"/>
<feGaussianBlur stdDeviation="2"/>
<feColorMatrix type="matrix" values="0 0 0 0 0 0 0 0 0 0 0 0 0 0 0 0 0 0 0.25 0"/>
<feBlend mode="normal" in2="BackgroundImageFix" result="effect1_dropShadow_2_19"/>
<feBlend mode="normal" in="SourceGraphic" in2="effect1_dropShadow_2_19" result="shape"/>
</filter>
<filter id="filter4_d_2_19" x="300.393" y="16" width="70.1918" height="66.793" filterUnits="userSpaceOnUse" color-interpolation-filters="sRGB">
<feFlood flood-opacity="0" result="BackgroundImageFix"/>
<feColorMatrix in="SourceAlpha" type="matrix" values="0 0 0 0 0 0 0 0 0 0 0 0 0 0 0 0 0 0 127 0" result="hardAlpha"/>
<feOffset dy="4"/>
<feGaussianBlur stdDeviation="2"/>
<feColorMatrix type="matrix" values="0 0 0 0 0 0 0 0 0 0 0 0 0 0 0 0 0 0 0.25 0"/>
<feBlend mode="normal" in2="BackgroundImageFix" result="effect1_dropShadow_2_19"/>
<feBlend mode="normal" in="SourceGraphic" in2="effect1_dropShadow_2_19" result="shape"/>
</filter>
<filter id="filter5_d_2_19" x="209.115" y="0" width="80.7166" height="76.7427" filterUnits="userSpaceOnUse" color-interpolation-filters="sRGB">
<feFlood flood-opacity="0" result="BackgroundImageFix"/>
<feColorMatrix in="SourceAlpha" type="matrix" values="0 0 0 0 0 0 0 0 0 0 0 0 0 0 0 0 0 0 127 0" result="hardAlpha"/>
<feOffset dy="4"/>
<feGaussianBlur stdDeviation="2"/>
<feColorMatrix type="matrix" values="0 0 0 0 0 0 0 0 0 0 0 0 0 0 0 0 0 0 0.25 0"/>
<feBlend mode="normal" in2="BackgroundImageFix" result="effect1_dropShadow_2_19"/>
<feBlend mode="normal" in="SourceGraphic" in2="effect1_dropShadow_2_19" result="shape"/>
</filter>
<radialGradient id="paint0_radial_2_19" cx="0" cy="0" r="1" gradientUnits="userSpaceOnUse" gradientTransform="translate(259.533 225) rotate(1.17169) scale(244.518 419.434)">
<stop stop-color="#FFC804"/>
<stop offset="0.71308" stop-color="#FFC804" stop-opacity="0.939566"/>
<stop offset="1" stop-color="#FFC804" stop-opacity="0.427083"/>
<stop offset="1" stop-color="#FFC804" stop-opacity="0"/>
<stop offset="1" stop-color="#FFC804" stop-opacity="0.504439"/>
</radialGradient>
</defs>
</svg>
